<?xml version="1.0" standalone="no"?>
<!DOCTYPE svg PUBLIC "-//W3C//DTD SVG 20010904//EN"
 "http://www.w3.org/TR/2001/REC-SVG-20010904/DTD/svg10.dtd">
<svg version="1.0" xmlns="http://www.w3.org/2000/svg"
 width="700.000000pt" height="700.000000pt" viewBox="0 0 700.000000 700.000000"
 preserveAspectRatio="xMidYMid meet">
<metadata>
Created by potrace 1.14, written by Peter Selinger 2001-2017
</metadata>
<g transform="translate(0.000000,700.000000) scale(0.100000,-0.100000)"
fill="#000000" stroke="none">
<path d="M4190 6652 c0 -4 6 -14 12 -20 10 -10 10 -17 0 -33 -15 -24 -8 -39
19 -39 12 0 19 7 19 20 0 23 16 32 64 35 17 2 37 3 44 4 6 0 12 5 12 10 0 5
-24 10 -52 10 -29 0 -66 4 -81 10 -34 13 -37 13 -37 3z"/>
<path d="M4321 6525 c-26 -30 -31 -44 -31 -85 0 -46 3 -52 33 -70 44 -27 51
-25 66 16 13 35 13 35 27 15 9 -12 12 -30 9 -44 -5 -18 -2 -26 12 -32 51 -22
56 -15 59 83 2 57 -1 74 -12 79 -9 3 -20 1 -27 -6 -21 -21 -35 -11 -53 34 -21
55 -41 58 -83 10z"/>
<path d="M4178 6512 c-22 -26 43 -95 72 -77 11 7 2 64 -12 82 -12 15 -46 13
-60 -5z"/>
<path d="M3963 6489 c-25 -16 -36 -18 -52 -10 -15 8 -23 7 -35 -5 -22 -21 -20
-66 5 -114 26 -49 21 -64 -28 -87 -21 -10 -43 -29 -50 -43 -18 -37 -42 -50
-92 -50 -41 0 -50 -5 -96 -50 -74 -73 -159 -146 -205 -176 -31 -21 -44 -24
-52 -16 -30 30 -51 5 -61 -72 -3 -23 -16 -49 -33 -67 -15 -16 -26 -29 -23 -30
2 0 27 -2 54 -3 253 -16 433 -89 571 -232 90 -93 162 -242 179 -368 3 -23 8
-50 10 -61 2 -11 4 -54 4 -96 l1 -75 68 -23 c111 -38 174 -72 222 -120 79 -79
97 -198 46 -298 -53 -105 -133 -147 -276 -148 -83 0 -102 4 -150 27 -30 15
-67 37 -81 49 l-27 21 -52 -36 c-29 -20 -57 -36 -63 -36 -7 0 10 -21 37 -46
74 -72 102 -124 156 -298 74 -234 50 -208 187 -205 149 4 225 13 342 44 137
35 312 135 330 188 23 64 125 220 177 269 46 45 58 63 76 123 29 98 33 131 33
293 l0 144 -37 30 c-41 32 -47 59 -27 116 10 28 7 39 -28 103 -118 220 -339
354 -788 479 -177 49 -282 83 -315 101 -138 77 -108 284 48 334 63 21 185 17
244 -8 55 -23 115 -83 144 -145 20 -42 48 -152 54 -211 0 -2 17 0 38 4 20 4
51 9 67 12 17 3 37 7 45 8 8 2 18 4 23 4 4 1 7 8 7 16 0 8 3 15 8 16 4 0 30 3
57 5 62 6 85 29 83 84 -3 72 78 121 97 60 7 -21 42 -20 37 1 -2 8 -13 24 -25
37 -20 21 -28 23 -81 17 -33 -3 -63 -8 -67 -11 -4 -2 -13 5 -19 16 -9 16 -19
20 -43 18 -32 -3 -32 -2 -31 39 1 48 20 75 65 93 39 17 37 43 -6 77 -19 15
-35 37 -35 48 0 43 -13 48 -73 30 -41 -12 -58 -22 -62 -38 -15 -51 -28 -77
-41 -77 -8 0 -14 3 -15 8 -1 4 -2 23 -4 42 -2 19 -3 40 -4 46 -1 6 -28 39 -61
73 l-60 63 -48 -5 c-26 -4 -56 -8 -67 -11 -27 -5 -59 19 -52 39 5 10 -6 23
-34 40 -22 14 -45 37 -51 50 -14 30 -23 31 -65 4z"/>
<path d="M2205 6118 c-11 -6 -21 -12 -23 -14 -2 -1 -6 -17 -9 -36 -2 -18 -10
-35 -16 -37 -31 -11 -87 -79 -92 -111 -3 -19 -8 -51 -11 -71 -7 -42 5 -54 41
-45 31 8 39 36 21 70 -18 36 -11 60 31 96 26 24 43 30 78 30 49 0 65 16 65 65
0 58 -36 80 -85 53z"/>
<path d="M4706 6101 c-6 -10 10 -25 37 -34 18 -7 21 1 11 27 -7 17 -39 22 -48
7z"/>
<path d="M4670 6060 c-12 -8 -10 -10 8 -10 13 0 20 4 17 10 -7 12 -6 12 -25 0z"/>
<path d="M1996 5754 c-33 -32 -17 -89 40 -151 22 -23 40 -46 41 -52 4 -17 -40
-128 -95 -237 -73 -145 -74 -182 -6 -219 65 -35 55 -115 -20 -166 -22 -15 -43
-34 -46 -44 -10 -28 0 -72 22 -95 27 -29 41 -15 62 59 14 51 19 58 36 54 29
-8 31 -16 16 -61 -11 -29 -11 -43 -3 -51 17 -17 36 -13 107 19 35 15 68 26 72
24 16 -10 59 -106 60 -133 0 -14 -2 -40 -6 -57 -6 -28 -4 -32 18 -38 33 -8 85
-61 92 -94 3 -15 9 -41 14 -58 4 -17 6 -64 5 -104 -1 -61 -5 -76 -23 -91 -12
-9 -22 -20 -22 -23 0 -11 38 -25 86 -32 60 -8 67 -13 84 -64 8 -23 21 -45 31
-50 26 -14 28 -41 8 -106 -22 -69 -26 -122 -12 -149 23 -46 49 -244 39 -299
-4 -23 -16 -37 -39 -50 -71 -38 -84 -46 -121 -78 l-39 -34 0 -105 c-1 -59 4
-113 10 -124 11 -19 23 -20 297 -21 l286 -1 -2 230 -3 230 -120 1 -120 1 0
283 0 284 125 -4 c100 -4 134 -9 170 -26 83 -39 121 -94 166 -245 18 -60 35
-111 38 -114 7 -7 675 -8 682 0 7 6 -87 315 -117 384 -49 115 -191 203 -336
208 -41 1 -70 25 -32 26 256 9 433 134 501 354 30 99 42 301 24 405 -41 230
-175 400 -376 478 -118 45 -187 57 -340 57 -95 0 -112 -3 -180 -32 -41 -17
-108 -44 -149 -59 -58 -21 -87 -39 -130 -82 -76 -73 -87 -80 -156 -87 -33 -3
-73 -7 -90 -9 -18 -2 -48 6 -75 20 -32 17 -61 24 -102 24 -66 0 -88 8 -183 69
-64 41 -104 74 -106 90 0 3 -3 26 -5 51 -2 25 -6 56 -8 70 -3 14 -5 28 -5 33
-2 13 -49 7 -65 -9z m1129 -542 c101 -53 146 -134 151 -272 7 -164 -37 -262
-140 -315 -57 -29 -64 -30 -225 -33 l-166 -4 0 327 0 327 170 -4 c147 -5 175
-8 210 -26z"/>
<path d="M3154 3671 c-2 -2 8 -17 22 -34 82 -98 90 -155 89 -671 l0 -418 265
-327 c146 -179 274 -338 285 -352 11 -14 25 -28 31 -31 7 -5 10 210 10 708 -1
568 2 718 12 726 21 18 259 20 321 3 275 -73 432 -354 433 -775 0 -125 -9
-213 -32 -300 -12 -49 -8 -732 5 -736 6 -2 39 11 75 29 49 24 66 38 71 59 4
15 23 47 42 70 59 74 62 84 30 114 -42 39 -38 97 15 199 49 96 64 175 37 205
-20 22 -15 79 15 188 18 65 19 122 3 202 -8 38 -9 88 -4 137 0 7 15 28 32 48
31 34 31 36 16 73 -8 20 -12 43 -10 50 3 7 -2 24 -11 37 -9 13 -16 29 -16 34
0 5 20 35 44 67 l44 58 -25 33 c-34 44 -32 75 6 128 36 50 38 65 12 89 -11 10
-22 28 -25 41 -8 32 -93 106 -190 166 -157 96 -354 155 -586 175 -81 6 -1009
11 -1016 5z"/>
<path d="M2706 2973 c4 -52 2 -92 -5 -115 -14 -44 -124 -163 -140 -153 -7 3
-19 24 -28 46 -32 81 -48 33 -40 -119 9 -157 18 -195 54 -231 28 -27 0 -93
-107 -251 -65 -95 -71 -121 -40 -172 27 -44 25 -61 -8 -95 -16 -15 -31 -36
-35 -46 -9 -24 17 -74 43 -82 21 -7 43 -41 66 -107 l14 -40 -70 -76 c-39 -43
-70 -86 -70 -97 0 -13 15 -27 43 -41 23 -12 42 -28 42 -37 0 -8 10 -23 23 -33
16 -14 23 -32 25 -70 4 -57 12 -74 32 -74 16 0 65 -56 65 -76 0 -8 -7 -14 -15
-14 -20 0 -19 -23 3 -43 14 -13 117 -39 140 -36 47 7 65 -26 53 -100 -6 -39
-5 -56 7 -73 26 -38 36 -39 60 -10 l22 27 6 -23 c4 -12 10 -22 14 -22 20 0 26
167 23 710 l-3 585 28 -31 c15 -16 74 -88 132 -158 58 -71 110 -134 115 -140
9 -8 418 -507 432 -525 5 -7 13 5 17 25 17 85 47 139 98 177 46 35 79 38 94 9
14 -29 98 -85 121 -80 10 2 23 19 29 38 13 40 35 55 86 63 26 4 42 1 52 -9 8
-8 37 -19 63 -24 120 -24 121 -25 208 -115 62 -64 91 -87 112 -88 l28 -2 -1
780 0 780 -31 66 c-17 37 -35 69 -41 73 -9 5 -193 8 -424 6 l-58 0 0 -687 0
-688 -28 32 c-41 47 -55 65 -114 139 -29 38 -61 78 -70 89 -16 19 -507 628
-566 704 -144 181 -351 430 -375 451 -17 14 -43 33 -59 44 l-29 18 7 -79z"/>
<path d="M2179 2808 c-5 -18 -6 -38 -1 -34 7 8 12 36 6 36 -2 0 -4 -1 -5 -2z"/>
<path d="M2013 2775 c0 -8 4 -12 9 -9 5 3 6 10 3 15 -9 13 -12 11 -12 -6z"/>
<path d="M2046 2778 c3 -5 10 -6 15 -3 13 9 11 12 -6 12 -8 0 -12 -4 -9 -9z"/>
<path d="M2053 2735 c0 -8 4 -12 9 -9 5 3 6 10 3 15 -9 13 -12 11 -12 -6z"/>
<path d="M2115 2720 c3 -5 8 -10 11 -10 2 0 4 5 4 10 0 6 -5 10 -11 10 -5 0
-7 -4 -4 -10z"/>
<path d="M2144 2722 c4 -3 14 -7 22 -8 9 -1 13 0 10 4 -4 3 -14 7 -22 8 -9 1
-13 0 -10 -4z"/>
<path d="M2020 2705 c0 -2 6 -8 13 -14 10 -8 14 -7 14 2 0 8 -6 14 -14 14 -7
0 -13 -1 -13 -2z"/>
<path d="M1995 2691 c-3 -5 -2 -12 3 -15 5 -3 9 1 9 9 0 17 -3 19 -12 6z"/>
<path d="M2094 2680 c0 -13 4 -16 10 -10 7 7 7 13 0 20 -6 6 -10 3 -10 -10z"/>
<path d="M2169 2684 c-11 -14 -24 -52 -14 -42 2 1 3 6 2 9 -1 4 7 16 17 28 11
12 17 21 14 21 -3 0 -12 -7 -19 -16z"/>
<path d="M2210 2696 c0 -2 8 -10 18 -17 15 -13 16 -12 3 4 -13 16 -21 21 -21
13z"/>
<path d="M2059 2673 c-13 -16 -12 -17 4 -4 16 13 21 21 13 21 -2 0 -10 -8 -17
-17z"/>
<path d="M2119 2653 c-13 -16 -12 -17 4 -4 16 13 21 21 13 21 -2 0 -10 -8 -17
-17z"/>
<path d="M2185 2660 c-3 -6 1 -7 9 -4 18 7 21 14 7 14 -6 0 -13 -4 -16 -10z"/>
<path d="M2234 2649 c-3 -6 -2 -15 3 -20 5 -5 9 -1 9 11 0 23 -2 24 -12 9z"/>
<path d="M2070 2641 c0 -10 19 -25 25 -20 1 2 -3 10 -11 17 -8 7 -14 8 -14 3z"/>
<path d="M2037 2617 c4 -7 -1 -8 -12 -3 -15 5 -16 4 -5 -9 7 -8 17 -15 23 -15
6 0 7 3 4 7 -4 3 -2 11 3 18 7 8 5 12 -5 12 -8 0 -11 -5 -8 -10z"/>
<path d="M2195 2620 c6 -10 4 -12 -8 -7 -21 8 -22 3 -3 -12 10 -9 15 -8 19 3
4 9 1 18 -5 22 -7 5 -8 2 -3 -6z"/>
<path d="M2234 2589 c-3 -6 -2 -15 3 -20 5 -5 9 -1 9 11 0 23 -2 24 -12 9z"/>
<path d="M2151 2583 c-1 -7 6 -16 15 -21 9 -5 15 -13 14 -18 -2 -12 30 -18 40
-7 4 4 4 17 -1 28 -9 18 -9 18 -5 -2 3 -17 -1 -23 -14 -23 -13 0 -18 6 -15 20
2 11 -1 23 -7 26 -7 4 -8 2 -4 -4 4 -7 3 -12 -3 -12 -5 0 -12 6 -14 13 -4 9
-6 9 -6 0z"/>
<path d="M2017 2559 c-3 -12 0 -22 9 -26 19 -7 47 4 39 16 -3 5 5 11 17 13 22
3 21 4 -4 9 -22 5 -26 3 -23 -13 3 -12 -2 -18 -15 -18 -13 0 -17 5 -13 20 3
11 3 20 0 20 -2 0 -7 -9 -10 -21z"/>
<path d="M1988 2563 c7 -3 16 -2 19 1 4 3 -2 6 -13 5 -11 0 -14 -3 -6 -6z"/>
<path d="M2134 2554 c1 -8 9 -20 17 -25 8 -5 10 -9 5 -9 -5 0 -3 -7 4 -15 7
-8 18 -15 24 -15 6 0 3 7 -6 14 -10 7 -15 16 -11 19 3 4 -2 9 -11 13 -9 3 -14
10 -11 14 3 5 1 11 -4 14 -5 4 -8 -1 -7 -10z"/>
<path d="M2090 2546 c0 -3 9 -10 20 -16 11 -6 20 -8 20 -6 0 3 -9 10 -20 16
-11 6 -20 8 -20 6z"/>
<path d="M1990 2522 c0 -4 10 -9 22 -9 18 -2 20 0 8 7 -18 12 -30 13 -30 2z"/>
<path d="M2070 2522 c0 -4 10 -9 22 -9 18 -2 20 0 8 7 -18 12 -30 13 -30 2z"/>
<path d="M2026 2489 c-14 -20 -13 -23 7 -40 27 -23 15 -24 -21 -3 l-27 16 25
-21 c27 -23 21 -28 -13 -10 -21 12 -21 12 -3 -16 13 -20 14 -27 5 -23 -22 8
-21 -538 1 -553 13 -9 12 -10 -2 -5 -17 5 -18 -27 -18 -579 1 -543 2 -588 19
-638 43 -123 123 -204 248 -248 53 -19 83 -21 341 -23 187 -1 286 2 290 9 8
12 11 254 3 256 -3 1 -126 2 -272 3 -294 2 -300 3 -339 68 -17 29 -19 57 -19
407 -1 915 -2 981 -14 982 -7 1 -19 1 -27 0 -10 0 -11 1 -2 5 6 3 10 10 6 15
-3 5 0 9 5 9 6 0 11 -4 11 -10 0 -5 5 -10 10 -10 15 0 12 30 -2 31 -7 1 -20 2
-28 3 -8 1 -28 -5 -44 -12 -23 -11 -26 -16 -15 -24 11 -8 10 -9 -3 -4 -10 3
-22 -2 -27 -12 -6 -9 -11 -12 -11 -6 0 5 5 15 10 20 18 18 -16 40 -35 24 -8
-7 -15 -9 -15 -5 0 4 8 14 18 22 16 14 16 14 0 9 -10 -3 -18 -1 -18 4 0 6 5
10 12 10 6 0 3 7 -8 15 -23 18 -40 19 -27 3 5 -7 8 -25 7 -40 -3 -29 26 -64
33 -40 3 6 9 12 15 12 6 0 5 -6 -2 -15 -7 -9 -21 -13 -31 -10 -9 3 -20 1 -24
-5 -3 -5 -11 -10 -18 -10 -6 0 -3 6 7 13 15 11 16 18 8 34 -6 11 -9 23 -6 25
2 3 -3 11 -13 19 -15 12 -16 12 -10 -4 4 -11 1 -24 -8 -33 -8 -9 -15 -12 -15
-7 0 5 5 14 12 21 7 7 8 12 2 12 -6 0 -11 7 -11 15 0 8 4 12 9 9 4 -3 8 2 8
11 0 10 -5 13 -12 9 -10 -6 -10 -4 -2 7 6 8 10 22 9 32 -2 9 0 15 5 12 4 -3
16 -2 25 1 13 6 14 9 3 16 -8 5 0 6 22 3 25 -4 31 -3 20 5 -8 5 -10 10 -4 10
6 0 11 7 11 15 0 23 -14 18 -20 -7 -4 -12 -9 -19 -12 -16 -12 12 15 47 34 45
11 0 18 -4 15 -8 -2 -4 0 -10 5 -14 5 -3 8 -14 6 -24 -2 -11 3 -22 11 -25 18
-7 46 3 39 14 -3 5 0 12 6 16 8 5 9 3 4 -5 -4 -7 4 -5 19 4 23 16 30 14 27 -7
0 -4 6 -5 14 -1 13 5 13 7 -2 19 -16 12 -16 15 -3 27 16 12 23 90 8 81 -4 -3
-8 0 -8 5 0 6 6 11 13 11 6 0 4 5 -5 11 -10 5 -18 15 -18 21 0 7 4 7 13 -1 10
-8 14 -7 14 4 0 8 -4 12 -8 9 -12 -7 -38 37 -32 55 4 13 3 14 -5 1 -6 -8 -8
-18 -6 -22 3 -5 8 -20 10 -35 4 -22 3 -24 -10 -14 -8 7 -12 19 -9 27 3 8 -1
14 -8 14 -7 0 -9 -3 -6 -6 3 -4 1 -16 -5 -28 -7 -11 -12 -25 -13 -30 0 -5 -6
-11 -14 -14 -8 -3 -11 0 -7 6 6 9 -37 62 -50 62 -12 0 -33 28 -26 35 4 5 1 4
-7 0 -12 -7 -7 -14 19 -36 19 -16 31 -31 28 -34 -8 -9 -68 45 -68 60 0 8 8 19
18 24 9 6 12 11 5 11 -6 0 -19 -10 -27 -21z m31 -79 c-1 -11 -5 -20 -9 -20 -4
0 -5 -9 -3 -21 3 -13 0 -19 -8 -16 -7 3 -11 10 -9 17 2 7 -5 22 -15 33 -10 11
-12 17 -6 13 7 -4 21 -2 30 3 10 6 19 11 20 11 1 0 1 -9 0 -20z m137 3 c4 -5
13 -8 19 -8 7 -1 11 -7 9 -14 -1 -7 1 -18 5 -25 5 -6 8 -18 7 -26 -1 -8 -2
-20 -3 -26 -2 -17 -41 -55 -51 -49 -5 3 -15 -3 -22 -15 -7 -11 -16 -20 -21
-20 -4 0 -5 5 -2 10 3 6 1 10 -4 10 -6 0 -10 3 -10 8 1 4 0 10 -1 15 -1 4 -3
12 -4 19 0 6 -11 12 -22 14 -15 3 -30 -7 -48 -31 -15 -19 -24 -35 -20 -35 4 0
5 -3 1 -6 -3 -3 -12 0 -20 7 -12 12 -12 15 2 26 14 11 14 12 1 8 -13 -5 -16 4
-16 49 0 30 3 53 7 50 4 -2 10 2 13 8 3 7 3 3 1 -8 -4 -14 0 -24 10 -28 10 -3
13 -11 9 -18 -5 -10 -4 -10 5 -2 11 10 17 28 20 56 1 4 8 5 16 2 8 -4 12 -10
9 -15 -3 -5 -11 -6 -17 -3 -8 4 -7 2 1 -7 11 -12 14 -12 21 0 5 8 11 9 15 3 7
-12 -22 -24 -37 -15 -7 3 -3 -3 8 -14 18 -18 21 -19 30 -4 6 9 19 18 30 19 11
2 17 1 13 -4 -4 -4 -3 -13 3 -21 14 -16 -2 -18 -18 -2 -8 8 -13 7 -18 -2 -6
-8 -4 -10 5 -4 9 6 11 4 5 -5 -6 -9 -4 -11 5 -5 9 5 11 4 6 -3 -5 -8 0 -11 16
-8 13 2 28 -1 35 -6 9 -7 11 -4 8 11 -2 12 -7 27 -10 34 -4 6 2 1 13 -12 16
-20 19 -21 17 -4 0 10 -4 24 -9 31 -4 6 -5 15 -2 20 2 4 -2 16 -10 27 -8 10
-14 14 -14 9 0 -6 5 -15 11 -21 9 -9 7 -12 -7 -12 -10 -1 -32 -2 -48 -3 -18
-2 -31 2 -34 10 -3 11 0 12 17 2 17 -9 26 -9 36 0 8 7 14 15 13 18 -1 14 2 22
10 22 5 0 12 -3 16 -7z m-69 -13 c2 -4 -9 -7 -25 -8 -16 0 -32 3 -35 8 -3 5 8
8 25 8 17 -1 33 -4 35 -8z m71 -52 c16 -19 16 -20 1 -9 -22 17 -32 9 -18 -16
7 -15 7 -20 -4 -20 -8 0 -14 3 -13 6 0 3 -1 8 -2 11 -7 19 -7 39 1 34 5 -3 9
0 9 5 0 16 5 14 26 -11z m-166 -263 c0 -8 -2 -15 -4 -15 -2 0 -6 7 -10 15 -3
8 -1 15 4 15 6 0 10 -7 10 -15z m164 0 c-7 -16 -24 -21 -24 -6 0 8 7 13 27 20
1 1 0 -6 -3 -14z m-184 -15 c0 -5 -5 -10 -11 -10 -5 0 -7 5 -4 10 3 6 8 10 11
10 2 0 4 -4 4 -10z m121 -33 c-10 -9 -11 -8 -5 6 3 10 9 15 12 12 3 -3 0 -11
-7 -18z m67 11 c-10 -6 -10 -10 2 -18 11 -7 17 -4 22 13 6 21 6 21 7 1 1 -30
-9 -36 -35 -19 -20 13 -23 12 -28 -1 -3 -9 -11 -12 -18 -8 -8 5 -9 2 -5 -9 3
-10 2 -17 -4 -17 -6 0 -9 8 -7 18 2 9 7 15 12 14 13 -5 27 21 15 29 -5 3 4 6
21 6 20 0 26 -3 18 -9z m-173 -16 c-3 -3 -11 0 -18 7 -9 10 -8 11 6 5 10 -3
15 -9 12 -12z m45 14 c0 -2 -7 -7 -16 -10 -8 -3 -12 -2 -9 4 6 10 25 14 25 6z
m35 -17 c0 -9 -8 -13 -24 -11 -13 2 -21 0 -18 -5 3 -5 1 -15 -4 -23 -7 -11 -8
-8 -5 10 2 18 9 25 25 24 22 -1 28 11 11 19 -6 3 -5 4 2 3 7 -2 13 -9 13 -17z
m-95 -19 c0 -5 -4 -10 -10 -10 -5 0 -10 5 -10 10 0 6 5 10 10 10 6 0 10 -4 10
-10z m27 -12 c-3 -8 -6 -5 -6 6 -1 11 2 17 5 13 3 -3 4 -12 1 -19z m78 2 c-3
-5 -12 -10 -18 -10 -7 0 -6 4 3 10 19 12 23 12 15 0z m75 6 c0 -2 -7 -7 -16
-10 -8 -3 -12 -2 -9 4 6 10 25 14 25 6z m40 -16 c-6 -11 -13 -20 -16 -20 -2 0
0 9 6 20 6 11 13 20 16 20 2 0 0 -9 -6 -20z m-25 0 c-3 -5 -12 -10 -18 -10 -7
0 -6 4 3 10 19 12 23 12 15 0z m-185 -15 c0 -3 9 -14 21 -24 18 -14 19 -18 6
-18 -10 0 -15 3 -12 6 3 3 -5 11 -17 18 -13 7 -17 12 -10 13 8 0 10 5 6 13 -4
6 -4 9 0 5 4 -3 7 -9 6 -13z m80 -1 c0 -2 -7 -4 -15 -4 -8 0 -15 4 -15 10 0 5
7 7 15 4 8 -4 15 -8 15 -10z m32 -1 c-6 -2 -10 -9 -6 -14 3 -5 0 -9 -5 -9 -12
0 -14 13 -4 23 3 4 11 7 17 6 6 0 5 -3 -2 -6z m64 -14 c3 -6 1 -16 -5 -22 -9
-9 -10 -7 -5 7 5 13 4 17 -4 12 -7 -4 -12 -2 -12 3 0 14 17 14 26 0z m-190
-53 c-1 -24 -3 -42 -6 -39 -7 7 -8 83 0 83 3 0 6 -20 6 -44z m87 27 c-4 -10
-2 -14 4 -10 5 3 10 0 10 -7 0 -11 -4 -12 -18 -3 -13 8 -15 15 -7 24 14 18 19
16 11 -4z m77 4 c0 -2 -8 -11 -18 -20 -15 -14 -19 -15 -19 -2 0 8 4 12 9 9 4
-3 8 0 8 5 0 6 5 11 10 11 6 0 10 -2 10 -3z m-120 -21 c0 -2 -8 -10 -17 -17
-16 -13 -17 -12 -4 4 13 16 21 21 21 13z m31 -23 c13 -16 12 -17 -3 -4 -10 7
-18 15 -18 17 0 8 8 3 21 -13z m84 -3 c-20 -22 -35 -26 -35 -9 0 5 4 8 9 5 5
-3 14 1 21 9 7 8 15 15 18 15 3 0 -3 -9 -13 -20z m50 10 c3 -6 -1 -7 -9 -4
-18 7 -21 14 -7 14 6 0 13 -4 16 -10z m-149 -22 c4 -7 3 -10 -1 -5 -5 4 -18
-1 -29 -10 -21 -18 -21 -18 -2 5 22 26 23 26 32 10z m99 -66 c-3 -3 -11 0 -18
7 -9 10 -8 11 6 5 10 -3 15 -9 12 -12z m-160 -1 c3 -5 2 -12 -3 -15 -5 -3 -9
1 -9 9 0 17 3 19 12 6z m142 -26 c0 -8 -4 -12 -9 -9 -5 3 -6 10 -3 15 9 13 12
11 12 -6z m-37 -5 c0 -5 -2 -10 -4 -10 -3 0 -8 5 -11 10 -3 6 -1 10 4 10 6 0
11 -4 11 -10z m-60 -40 c0 -5 -2 -10 -4 -10 -3 0 -8 5 -11 10 -3 6 -1 10 4 10
6 0 11 -4 11 -10z"/>
<path d="M2015 2330 c-14 -23 -14 -49 1 -43 15 6 19 -7 7 -23 -5 -5 4 4 19 21
24 28 29 60 5 36 -16 -16 -30 -13 -23 4 6 17 0 20 -9 5z m45 -14 c0 -2 -8 -10
-17 -17 -16 -13 -17 -12 -4 4 13 16 21 21 21 13z"/>
<path d="M2134 2274 c9 -6 12 -15 8 -20 -4 -5 2 -1 14 9 11 9 24 15 27 12 4
-3 5 -2 1 2 -3 4 -19 8 -35 8 -25 1 -28 -1 -15 -11z"/>
<path d="M2109 2494 c-10 -13 -10 -20 4 -42 16 -28 38 -35 44 -16 2 7 -3 19
-12 27 -8 9 -11 18 -6 22 5 3 12 1 16 -5 3 -5 11 -10 17 -10 6 0 -1 9 -15 20
-30 24 -31 24 -48 4z m22 -8 c-9 -10 -8 -16 4 -26 16 -14 20 -30 7 -30 -5 0
-14 11 -21 24 -14 25 -8 46 11 46 7 0 7 -4 -1 -14z"/>
<path d="M2228 2503 c7 -3 16 -2 19 1 4 3 -2 6 -13 5 -11 0 -14 -3 -6 -6z"/>
<path d="M1992 2484 c-7 -8 -8 -14 -3 -14 10 0 25 19 20 25 -2 1 -10 -3 -17
-11z"/>
<path d="M2070 2490 c0 -5 5 -10 10 -10 6 0 10 5 10 10 0 6 -4 10 -10 10 -5 0
-10 -4 -10 -10z"/>
<path d="M2220 2484 c0 -13 18 -39 24 -34 2 3 -2 14 -10 24 -8 11 -14 16 -14
10z"/>
<path d="M2230 2280 c0 -5 5 -10 10 -10 6 0 10 5 10 10 0 6 -4 10 -10 10 -5 0
-10 -4 -10 -10z"/>
<path d="M2094 2258 c1 -17 -4 -23 -19 -23 -24 0 -28 -34 -5 -53 13 -12 13
-13 0 -7 -8 4 -6 -2 6 -12 11 -10 29 -31 39 -48 10 -17 20 -24 23 -17 2 6 10
12 18 12 8 0 14 5 14 11 0 5 -5 7 -10 4 -6 -3 -13 0 -16 9 -3 8 -12 12 -19 10
-8 -4 -20 7 -30 26 -9 18 -12 29 -7 26 6 -3 13 0 16 6 3 7 3 2 0 -12 l-5 -25
14 24 c11 18 16 20 20 10 5 -12 7 -12 16 1 10 13 11 13 11 0 0 -13 1 -13 10 0
5 8 10 10 10 3 0 -17 31 -9 46 12 8 10 14 15 14 10 0 -5 -8 -17 -17 -28 -16
-18 -16 -20 -2 -14 14 4 16 -1 13 -29 -1 -19 1 -34 5 -34 4 0 8 27 8 60 0 50
-3 60 -16 58 -9 -2 -15 3 -13 10 3 17 -37 -3 -44 -22 -5 -14 -63 -17 -65 -4
-1 4 -2 17 -3 27 0 11 -4 22 -7 26 -4 3 -6 -5 -5 -17z m121 -27 c7 -12 -12
-24 -25 -16 -11 7 -4 25 10 25 5 0 11 -4 15 -9z m-125 -15 c-7 -7 -13 -7 -20
0 -6 6 -3 10 10 10 13 0 16 -4 10 -10z"/>
<path d="M2025 2212 c-13 -9 -18 -35 -5 -27 6 4 9 -3 7 -16 -1 -12 5 -24 13
-27 13 -4 13 -3 2 10 -8 10 -9 19 -3 22 9 6 9 31 0 40 -2 3 -9 2 -14 -2z"/>
<path d="M2139 2158 c9 -14 18 -26 21 -26 3 0 7 0 10 -2 3 -1 16 -3 29 -6 20
-4 22 -2 11 11 -9 11 -15 13 -20 5 -9 -15 -22 14 -14 33 3 9 -5 13 -24 12 -28
0 -28 0 -13 -27z"/>
<path d="M2186 2173 c-4 -9 -4 -18 -1 -21 3 -3 5 0 5 6 0 7 5 12 10 12 6 0 9
-5 8 -11 -2 -6 2 -13 8 -16 18 -6 12 23 -7 35 -13 9 -19 8 -23 -5z"/>
<path d="M2110 2160 c0 -5 5 -10 10 -10 6 0 10 5 10 10 0 6 -4 10 -10 10 -5 0
-10 -4 -10 -10z"/>
<path d="M2375 1168 c-81 -39 -88 -43 -97 -67 -6 -19 -5 -22 7 -17 8 3 15 2
16 -2 7 -66 25 -87 69 -77 23 5 35 16 45 39 17 40 24 139 10 141 -5 1 -28 -6
-50 -17z"/>
<path d="M3206 1162 c-57 -18 -127 -82 -153 -140 -14 -31 -18 -74 -20 -252 -3
-247 2 -271 71 -342 74 -75 101 -81 346 -85 l215 -2 0 89 0 90 -110 0 c-277 1
-292 3 -322 32 l-27 27 0 169 c0 187 8 223 54 242 24 10 195 14 413 11 29 -1
46 -9 68 -30 40 -41 40 -91 0 -132 l-29 -29 -200 0 -199 0 -1 -91 0 -90 221 3
c208 3 225 4 264 26 51 27 96 69 116 108 75 151 22 321 -120 387 -45 21 -64
22 -293 24 -203 1 -253 -1 -294 -15z"/>
<path d="M4135 1170 c-11 -4 -29 -18 -40 -30 -19 -21 -20 -37 -20 -408 l0
-387 95 0 95 0 0 323 0 322 205 0 c242 0 270 -8 319 -84 l28 -46 1 -247 c0
-137 1 -254 1 -260 1 -10 27 -13 95 -13 l93 0 -1 272 c-2 235 -5 280 -20 323
-38 105 -107 174 -216 217 -51 20 -73 22 -335 24 -154 1 -289 -1 -300 -6z"/>
<path d="M2450 986 c0 -7 -3 -26 -6 -42 -4 -21 0 -36 13 -51 12 -14 18 -34 17
-55 -2 -22 6 -43 22 -66 24 -31 84 -70 84 -55 3 57 15 131 25 150 30 57 -27
158 -69 124 -10 -8 -21 -8 -40 -1 -36 13 -46 13 -46 -4z"/>
</g>
</svg>
